<svg xmlns="http://www.w3.org/2000/svg" width="32" height="32" viewBox="0 0 32 32">
  <!-- Background circle -->
  <circle cx="16" cy="16" r="16" fill="#E8622A"/>
  <!-- Wool/body puffs -->
  <circle cx="10" cy="13" r="4" fill="#F0EDE7"/>
  <circle cx="16" cy="11" r="4" fill="#F0EDE7"/>
  <circle cx="22" cy="13" r="4" fill="#F0EDE7"/>
  <circle cx="12" cy="17" r="4" fill="#F0EDE7"/>
  <circle cx="20" cy="17" r="4" fill="#F0EDE7"/>
  <circle cx="16" cy="15" r="4" fill="#F0EDE7"/>
  <!-- Head -->
  <ellipse cx="16" cy="20" rx="6" ry="5" fill="#3D3229"/>
  <!-- Ears -->
  <ellipse cx="9.5" cy="18" rx="2.5" ry="1.2" fill="#3D3229" transform="rotate(-20 9.5 18)"/>
  <ellipse cx="22.5" cy="18" rx="2.5" ry="1.2" fill="#3D3229" transform="rotate(20 22.5 18)"/>
  <!-- Eyes -->
  <circle cx="13.5" cy="19.5" r="1.5" fill="white"/>
  <circle cx="18.5" cy="19.5" r="1.5" fill="white"/>
  <circle cx="14" cy="19.5" r="0.7" fill="#1A1208"/>
  <circle cx="19" cy="19.5" r="0.7" fill="#1A1208"/>
  <!-- Nose -->
  <ellipse cx="16" cy="22" rx="1.5" ry="1" fill="#FFB5B5"/>
  <!-- Smile -->
  <path d="M14 23.5 Q16 25 18 23.5" stroke="#1A1208" stroke-width="0.8" fill="none" stroke-linecap="round"/>
</svg>
